<svg width="206" height="206" viewBox="0 0 206 206" fill="none" xmlns="http://www.w3.org/2000/svg">
<circle cx="103" cy="103" r="103" fill="#EAEAEA"/>
<path d="M114.04 40.28C118.36 39.2 121.48 40.28 123.4 43.52C124 44.6 124.36 45.8 124.48 47.12C124.48 48.92 124.06 50.66 123.22 52.34C120.46 56.18 116.98 58.4 112.78 59C111.46 59 110.08 58.64 108.64 57.92C107.44 57.32 106.48 56.24 105.76 54.68C105.4 54.2 105.16 53.24 105.04 51.8C105.04 49.88 105.4 48.2 106.12 46.76C107.8 43.4 110.44 41.24 114.04 40.28ZM98.56 78.8C99.4 78.56 100.72 78.44 102.52 78.44C105.28 78.56 107.68 79.16 109.72 80.24C111.28 81.08 112.48 81.98 113.32 82.94C114.28 83.78 115.18 84.98 116.02 86.54C117.1 88.82 117.58 91.22 117.46 93.74C117.46 95.78 117.34 97.22 117.1 98.06C116.98 98.3 114.28 105.8 109 120.56C103.96 134 101.26 141.44 100.9 142.88C99.7 146.84 99.52 149.48 100.36 150.8C100.96 151.52 102.22 151.64 104.14 151.16C108.82 150.08 112.6 144.26 115.48 133.7C116.08 131.78 116.68 130.76 117.28 130.64C117.64 130.52 118.9 130.46 121.06 130.46C123.7 130.46 125.14 130.58 125.38 130.82C126.1 131.3 126.1 132.56 125.38 134.6C124.06 139.28 122.08 143.66 119.44 147.74C114.64 154.94 109.18 158.96 103.06 159.8C100.9 160.28 98.68 160.16 96.4 159.44C94 158.72 92.02 157.82 90.46 156.74C87.82 154.58 86.08 151.52 85.24 147.56C84.76 145.28 84.88 142.88 85.6 140.36C85.84 139.4 88.48 132.02 93.52 118.22C97.84 106.7 100.6 99.14 101.8 95.54C103 91.82 103.18 89.24 102.34 87.8C101.98 86.84 100.72 86.66 98.56 87.26C94.96 88.1 91.78 91.88 89.02 98.6C87.46 104 86.68 106.58 86.68 106.34C86.32 107.06 86.08 107.48 85.96 107.6C85.72 107.84 84.28 107.96 81.64 107.96H77.68L77.14 107.42C76.78 107.06 76.6 106.58 76.6 105.98C76.84 104.06 77.86 101.06 79.66 96.98C81.1 93.86 82.6 91.28 84.16 89.24C85.72 87.08 87.7 84.92 90.1 82.76C92.74 80.72 95.56 79.4 98.56 78.8Z" fill="black"/>
</svg>
